M48
;DRILL file {KiCad (2015-11-17 BZR 6321)-product} date Tue 01 Dec 2015 04:08:55 PM PST
;FORMAT={-:-/ absolute / inch / decimal}
FMAT,2
INCH,TZ
T1C0.013
T2C0.031
T3C0.039
T4C0.040
%
G90
G05
M72
T1
X7.27Y-4.83
X7.3347Y-5.1434
X7.38Y-4.94
X7.43Y-5.01
X7.6445Y-5.07
T2
X6.27Y-4.58
X6.27Y-4.68
X6.27Y-4.78
X6.27Y-4.88
X6.27Y-4.98
X6.27Y-5.08
X6.27Y-5.18
X6.27Y-5.28
X6.57Y-4.58
X6.57Y-4.68
X6.57Y-4.78
X6.57Y-4.88
X6.57Y-4.98
X6.57Y-5.08
X6.57Y-5.18
X6.57Y-5.28
X7.35Y-4.65
X7.35Y-5.25
X7.45Y-4.65
X7.45Y-5.25
X7.55Y-4.65
X7.55Y-5.25
X7.65Y-4.65
X7.65Y-5.25
X7.75Y-4.65
X7.75Y-5.25
T3
X6.75Y-4.57
X6.75Y-4.68
X6.75Y-4.79
X6.75Y-4.9
X6.75Y-5.01
X6.75Y-5.12
X6.75Y-5.23
X6.75Y-5.34
X7.15Y-4.57
X7.15Y-4.68
X7.15Y-4.79
X7.15Y-4.9
X7.15Y-5.01
X7.15Y-5.12
X7.15Y-5.23
X7.15Y-5.34
T4
X6.12Y-4.62
X6.12Y-4.72
X6.12Y-4.82
X6.12Y-4.92
X6.12Y-5.02
T0
M30
