G04 #@! TF.FileFunction,Legend,Top*
%FSLAX46Y46*%
G04 Gerber Fmt 4.6, Leading zero omitted, Abs format (unit mm)*
G04 Created by KiCad (PCBNEW (2015-11-17 BZR 6321)-product) date Tue 01 Dec 2015 04:11:32 PM PST*
%MOMM*%
G01*
G04 APERTURE LIST*
%ADD10C,0.100000*%
%ADD11C,0.150000*%
G04 APERTURE END LIST*
D10*
D11*
X153898000Y-117348000D02*
X153898000Y-115798000D01*
X153898000Y-115798000D02*
X156998000Y-115798000D01*
X156998000Y-115798000D02*
X156998000Y-117348000D01*
X156718000Y-118618000D02*
X156718000Y-128778000D01*
X156718000Y-128778000D02*
X154178000Y-128778000D01*
X154178000Y-128778000D02*
X154178000Y-118618000D01*
X156718000Y-118618000D02*
X154178000Y-118618000D01*
X179070000Y-136906000D02*
X173990000Y-136906000D01*
X173990000Y-136906000D02*
X173990000Y-134366000D01*
X173990000Y-134366000D02*
X179070000Y-134366000D01*
X179070000Y-134366000D02*
X179070000Y-136906000D01*
X179070000Y-135636000D02*
X180340000Y-135636000D01*
X173990000Y-135636000D02*
X172720000Y-135636000D01*
X179070000Y-134112000D02*
X173990000Y-134112000D01*
X173990000Y-134112000D02*
X173990000Y-131572000D01*
X173990000Y-131572000D02*
X179070000Y-131572000D01*
X179070000Y-131572000D02*
X179070000Y-134112000D01*
X179070000Y-132842000D02*
X180340000Y-132842000D01*
X173990000Y-132842000D02*
X172720000Y-132842000D01*
X179070000Y-131318000D02*
X173990000Y-131318000D01*
X173990000Y-131318000D02*
X173990000Y-128778000D01*
X173990000Y-128778000D02*
X179070000Y-128778000D01*
X179070000Y-128778000D02*
X179070000Y-131318000D01*
X179070000Y-130048000D02*
X180340000Y-130048000D01*
X173990000Y-130048000D02*
X172720000Y-130048000D01*
X179070000Y-128524000D02*
X173990000Y-128524000D01*
X173990000Y-128524000D02*
X173990000Y-125984000D01*
X173990000Y-125984000D02*
X179070000Y-125984000D01*
X179070000Y-125984000D02*
X179070000Y-128524000D01*
X179070000Y-127254000D02*
X180340000Y-127254000D01*
X173990000Y-127254000D02*
X172720000Y-127254000D01*
X179070000Y-125730000D02*
X173990000Y-125730000D01*
X173990000Y-125730000D02*
X173990000Y-123190000D01*
X173990000Y-123190000D02*
X179070000Y-123190000D01*
X179070000Y-123190000D02*
X179070000Y-125730000D01*
X179070000Y-124460000D02*
X180340000Y-124460000D01*
X173990000Y-124460000D02*
X172720000Y-124460000D01*
X179070000Y-122936000D02*
X173990000Y-122936000D01*
X173990000Y-122936000D02*
X173990000Y-120396000D01*
X173990000Y-120396000D02*
X179070000Y-120396000D01*
X179070000Y-120396000D02*
X179070000Y-122936000D01*
X179070000Y-121666000D02*
X180340000Y-121666000D01*
X173990000Y-121666000D02*
X172720000Y-121666000D01*
X179070000Y-120142000D02*
X173990000Y-120142000D01*
X173990000Y-120142000D02*
X173990000Y-117602000D01*
X173990000Y-117602000D02*
X179070000Y-117602000D01*
X179070000Y-117602000D02*
X179070000Y-120142000D01*
X179070000Y-118872000D02*
X180340000Y-118872000D01*
X173990000Y-118872000D02*
X172720000Y-118872000D01*
X179070000Y-117348000D02*
X173990000Y-117348000D01*
X173990000Y-117348000D02*
X173990000Y-114808000D01*
X173990000Y-114808000D02*
X179070000Y-114808000D01*
X179070000Y-114808000D02*
X179070000Y-117348000D01*
X179070000Y-116078000D02*
X180340000Y-116078000D01*
X173990000Y-116078000D02*
X172720000Y-116078000D01*
X196217214Y-130730000D02*
G75*
G03X196217214Y-130730000I-447214J0D01*
G01*
X188770000Y-120730000D02*
X187770000Y-125730000D01*
X187770000Y-125730000D02*
X186770000Y-130730000D01*
X186770000Y-130730000D02*
X193770000Y-130730000D01*
X193770000Y-130730000D02*
X194770000Y-125730000D01*
X195770000Y-120730000D02*
X194770000Y-125730000D01*
X194770000Y-125730000D02*
X187770000Y-125730000D01*
X188770000Y-120730000D02*
X195770000Y-120730000D01*
X198070000Y-135330000D02*
X185470000Y-135330000D01*
X185470000Y-120030000D02*
X185470000Y-131430000D01*
X198070000Y-120030000D02*
X198070000Y-131430000D01*
X185470000Y-116130000D02*
X198070000Y-116130000D01*
X166743000Y-136407000D02*
X166743000Y-135137000D01*
X159393000Y-136407000D02*
X159393000Y-135137000D01*
X159393000Y-114037000D02*
X159393000Y-115307000D01*
X166743000Y-114037000D02*
X166743000Y-115307000D01*
X166743000Y-136407000D02*
X159393000Y-136407000D01*
X166743000Y-114037000D02*
X159393000Y-114037000D01*
X166743000Y-135137000D02*
X168028000Y-135137000D01*
X154963905Y-115260381D02*
X154963905Y-114260381D01*
X155344858Y-114260381D01*
X155440096Y-114308000D01*
X155487715Y-114355619D01*
X155535334Y-114450857D01*
X155535334Y-114593714D01*
X155487715Y-114688952D01*
X155440096Y-114736571D01*
X155344858Y-114784190D01*
X154963905Y-114784190D01*
X156487715Y-115260381D02*
X155916286Y-115260381D01*
X156202000Y-115260381D02*
X156202000Y-114260381D01*
X156106762Y-114403238D01*
X156011524Y-114498476D01*
X155916286Y-114546095D01*
X176363334Y-136088381D02*
X176030000Y-135612190D01*
X175791905Y-136088381D02*
X175791905Y-135088381D01*
X176172858Y-135088381D01*
X176268096Y-135136000D01*
X176315715Y-135183619D01*
X176363334Y-135278857D01*
X176363334Y-135421714D01*
X176315715Y-135516952D01*
X176268096Y-135564571D01*
X176172858Y-135612190D01*
X175791905Y-135612190D01*
X177315715Y-136088381D02*
X176744286Y-136088381D01*
X177030000Y-136088381D02*
X177030000Y-135088381D01*
X176934762Y-135231238D01*
X176839524Y-135326476D01*
X176744286Y-135374095D01*
X176363334Y-133294381D02*
X176030000Y-132818190D01*
X175791905Y-133294381D02*
X175791905Y-132294381D01*
X176172858Y-132294381D01*
X176268096Y-132342000D01*
X176315715Y-132389619D01*
X176363334Y-132484857D01*
X176363334Y-132627714D01*
X176315715Y-132722952D01*
X176268096Y-132770571D01*
X176172858Y-132818190D01*
X175791905Y-132818190D01*
X176744286Y-132389619D02*
X176791905Y-132342000D01*
X176887143Y-132294381D01*
X177125239Y-132294381D01*
X177220477Y-132342000D01*
X177268096Y-132389619D01*
X177315715Y-132484857D01*
X177315715Y-132580095D01*
X177268096Y-132722952D01*
X176696667Y-133294381D01*
X177315715Y-133294381D01*
X176363334Y-130500381D02*
X176030000Y-130024190D01*
X175791905Y-130500381D02*
X175791905Y-129500381D01*
X176172858Y-129500381D01*
X176268096Y-129548000D01*
X176315715Y-129595619D01*
X176363334Y-129690857D01*
X176363334Y-129833714D01*
X176315715Y-129928952D01*
X176268096Y-129976571D01*
X176172858Y-130024190D01*
X175791905Y-130024190D01*
X176696667Y-129500381D02*
X177315715Y-129500381D01*
X176982381Y-129881333D01*
X177125239Y-129881333D01*
X177220477Y-129928952D01*
X177268096Y-129976571D01*
X177315715Y-130071810D01*
X177315715Y-130309905D01*
X177268096Y-130405143D01*
X177220477Y-130452762D01*
X177125239Y-130500381D01*
X176839524Y-130500381D01*
X176744286Y-130452762D01*
X176696667Y-130405143D01*
X176363334Y-127706381D02*
X176030000Y-127230190D01*
X175791905Y-127706381D02*
X175791905Y-126706381D01*
X176172858Y-126706381D01*
X176268096Y-126754000D01*
X176315715Y-126801619D01*
X176363334Y-126896857D01*
X176363334Y-127039714D01*
X176315715Y-127134952D01*
X176268096Y-127182571D01*
X176172858Y-127230190D01*
X175791905Y-127230190D01*
X177220477Y-127039714D02*
X177220477Y-127706381D01*
X176982381Y-126658762D02*
X176744286Y-127373048D01*
X177363334Y-127373048D01*
X176363334Y-124912381D02*
X176030000Y-124436190D01*
X175791905Y-124912381D02*
X175791905Y-123912381D01*
X176172858Y-123912381D01*
X176268096Y-123960000D01*
X176315715Y-124007619D01*
X176363334Y-124102857D01*
X176363334Y-124245714D01*
X176315715Y-124340952D01*
X176268096Y-124388571D01*
X176172858Y-124436190D01*
X175791905Y-124436190D01*
X177268096Y-123912381D02*
X176791905Y-123912381D01*
X176744286Y-124388571D01*
X176791905Y-124340952D01*
X176887143Y-124293333D01*
X177125239Y-124293333D01*
X177220477Y-124340952D01*
X177268096Y-124388571D01*
X177315715Y-124483810D01*
X177315715Y-124721905D01*
X177268096Y-124817143D01*
X177220477Y-124864762D01*
X177125239Y-124912381D01*
X176887143Y-124912381D01*
X176791905Y-124864762D01*
X176744286Y-124817143D01*
X176363334Y-122118381D02*
X176030000Y-121642190D01*
X175791905Y-122118381D02*
X175791905Y-121118381D01*
X176172858Y-121118381D01*
X176268096Y-121166000D01*
X176315715Y-121213619D01*
X176363334Y-121308857D01*
X176363334Y-121451714D01*
X176315715Y-121546952D01*
X176268096Y-121594571D01*
X176172858Y-121642190D01*
X175791905Y-121642190D01*
X177220477Y-121118381D02*
X177030000Y-121118381D01*
X176934762Y-121166000D01*
X176887143Y-121213619D01*
X176791905Y-121356476D01*
X176744286Y-121546952D01*
X176744286Y-121927905D01*
X176791905Y-122023143D01*
X176839524Y-122070762D01*
X176934762Y-122118381D01*
X177125239Y-122118381D01*
X177220477Y-122070762D01*
X177268096Y-122023143D01*
X177315715Y-121927905D01*
X177315715Y-121689810D01*
X177268096Y-121594571D01*
X177220477Y-121546952D01*
X177125239Y-121499333D01*
X176934762Y-121499333D01*
X176839524Y-121546952D01*
X176791905Y-121594571D01*
X176744286Y-121689810D01*
X176363334Y-119324381D02*
X176030000Y-118848190D01*
X175791905Y-119324381D02*
X175791905Y-118324381D01*
X176172858Y-118324381D01*
X176268096Y-118372000D01*
X176315715Y-118419619D01*
X176363334Y-118514857D01*
X176363334Y-118657714D01*
X176315715Y-118752952D01*
X176268096Y-118800571D01*
X176172858Y-118848190D01*
X175791905Y-118848190D01*
X176696667Y-118324381D02*
X177363334Y-118324381D01*
X176934762Y-119324381D01*
X176363334Y-116530381D02*
X176030000Y-116054190D01*
X175791905Y-116530381D02*
X175791905Y-115530381D01*
X176172858Y-115530381D01*
X176268096Y-115578000D01*
X176315715Y-115625619D01*
X176363334Y-115720857D01*
X176363334Y-115863714D01*
X176315715Y-115958952D01*
X176268096Y-116006571D01*
X176172858Y-116054190D01*
X175791905Y-116054190D01*
X176934762Y-115958952D02*
X176839524Y-115911333D01*
X176791905Y-115863714D01*
X176744286Y-115768476D01*
X176744286Y-115720857D01*
X176791905Y-115625619D01*
X176839524Y-115578000D01*
X176934762Y-115530381D01*
X177125239Y-115530381D01*
X177220477Y-115578000D01*
X177268096Y-115625619D01*
X177315715Y-115720857D01*
X177315715Y-115768476D01*
X177268096Y-115863714D01*
X177220477Y-115911333D01*
X177125239Y-115958952D01*
X176934762Y-115958952D01*
X176839524Y-116006571D01*
X176791905Y-116054190D01*
X176744286Y-116149429D01*
X176744286Y-116339905D01*
X176791905Y-116435143D01*
X176839524Y-116482762D01*
X176934762Y-116530381D01*
X177125239Y-116530381D01*
X177220477Y-116482762D01*
X177268096Y-116435143D01*
X177315715Y-116339905D01*
X177315715Y-116149429D01*
X177268096Y-116054190D01*
X177220477Y-116006571D01*
X177125239Y-115958952D01*
X185674095Y-115466762D02*
X185816952Y-115514381D01*
X186055048Y-115514381D01*
X186150286Y-115466762D01*
X186197905Y-115419143D01*
X186245524Y-115323905D01*
X186245524Y-115228667D01*
X186197905Y-115133429D01*
X186150286Y-115085810D01*
X186055048Y-115038190D01*
X185864571Y-114990571D01*
X185769333Y-114942952D01*
X185721714Y-114895333D01*
X185674095Y-114800095D01*
X185674095Y-114704857D01*
X185721714Y-114609619D01*
X185769333Y-114562000D01*
X185864571Y-114514381D01*
X186102667Y-114514381D01*
X186245524Y-114562000D01*
X187197905Y-115514381D02*
X186626476Y-115514381D01*
X186912190Y-115514381D02*
X186912190Y-114514381D01*
X186816952Y-114657238D01*
X186721714Y-114752476D01*
X186626476Y-114800095D01*
X155448095Y-133564381D02*
X155448095Y-134373905D01*
X155495714Y-134469143D01*
X155543333Y-134516762D01*
X155638571Y-134564381D01*
X155829048Y-134564381D01*
X155924286Y-134516762D01*
X155971905Y-134469143D01*
X156019524Y-134373905D01*
X156019524Y-133564381D01*
X157019524Y-134564381D02*
X156448095Y-134564381D01*
X156733809Y-134564381D02*
X156733809Y-133564381D01*
X156638571Y-133707238D01*
X156543333Y-133802476D01*
X156448095Y-133850095D01*
M02*
