G04 #@! TF.FileFunction,Copper,L2,Bot,Signal*
%FSLAX46Y46*%
G04 Gerber Fmt 4.6, Leading zero omitted, Abs format (unit mm)*
G04 Created by KiCad (PCBNEW (2015-11-17 BZR 6321)-product) date Tue 01 Dec 2015 12:21:10 PM PST*
%MOMM*%
G01*
G04 APERTURE LIST*
%ADD10C,0.152400*%
%ADD11C,1.524000*%
%ADD12R,1.727200X2.032000*%
%ADD13O,1.727200X2.032000*%
%ADD14C,0.330200*%
%ADD15C,0.508000*%
G04 APERTURE END LIST*
D10*
D11*
X177800000Y-111760000D03*
X177800000Y-109220000D03*
X177800000Y-106680000D03*
X177800000Y-104140000D03*
X175260000Y-104140000D03*
X175260000Y-106680000D03*
X175260000Y-109220000D03*
X175260000Y-111760000D03*
D12*
X170815000Y-99060000D03*
D13*
X168275000Y-99060000D03*
X165735000Y-99060000D03*
X163195000Y-99060000D03*
X160655000Y-99060000D03*
X158115000Y-99060000D03*
X155575000Y-99060000D03*
X153035000Y-99060000D03*
D14*
X168275000Y-101600000D02*
X168275000Y-99060000D01*
X168910000Y-102235000D02*
X168275000Y-101600000D01*
X178435000Y-102235000D02*
X168910000Y-102235000D01*
X179705000Y-103505000D02*
X178435000Y-102235000D01*
X179705000Y-108585000D02*
X179705000Y-103505000D01*
X179070000Y-109220000D02*
X179705000Y-108585000D01*
X177800000Y-109220000D02*
X179070000Y-109220000D01*
X165735000Y-104775000D02*
X165735000Y-99060000D01*
X166370000Y-105410000D02*
X165735000Y-104775000D01*
X176530000Y-105410000D02*
X166370000Y-105410000D01*
X177800000Y-106680000D02*
X176530000Y-105410000D01*
D15*
X177800000Y-111760000D02*
X179705000Y-111760000D01*
X179705000Y-111760000D02*
X180975000Y-110490000D01*
X177800000Y-99060000D02*
X170815000Y-99060000D01*
X180975000Y-102235000D02*
X177800000Y-99060000D01*
X180975000Y-110490000D02*
X180975000Y-102235000D01*
M02*
