G04 #@! TF.FileFunction,Copper,L1,Top,Signal*
%FSLAX46Y46*%
G04 Gerber Fmt 4.6, Leading zero omitted, Abs format (unit mm)*
G04 Created by KiCad (PCBNEW (2015-11-17 BZR 6321)-product) date Tue 01 Dec 2015 12:21:10 PM PST*
%MOMM*%
G01*
G04 APERTURE LIST*
%ADD10C,0.152400*%
%ADD11R,3.500120X2.400300*%
%ADD12C,1.524000*%
%ADD13R,1.727200X2.032000*%
%ADD14O,1.727200X2.032000*%
%ADD15C,0.330200*%
%ADD16C,0.508000*%
%ADD17C,0.254000*%
G04 APERTURE END LIST*
D10*
D11*
X174802800Y-97028000D03*
X181305200Y-97028000D03*
D12*
X177800000Y-111760000D03*
X177800000Y-109220000D03*
X177800000Y-106680000D03*
X177800000Y-104140000D03*
X175260000Y-104140000D03*
X175260000Y-106680000D03*
X175260000Y-109220000D03*
X175260000Y-111760000D03*
D13*
X170815000Y-99060000D03*
D14*
X168275000Y-99060000D03*
X165735000Y-99060000D03*
X163195000Y-99060000D03*
X160655000Y-99060000D03*
X158115000Y-99060000D03*
X155575000Y-99060000D03*
X153035000Y-99060000D03*
D15*
X163195000Y-100965000D02*
X163195000Y-99060000D01*
X164465000Y-102235000D02*
X163195000Y-100965000D01*
X177165000Y-102235000D02*
X164465000Y-102235000D01*
X177800000Y-102870000D02*
X177165000Y-102235000D01*
X177800000Y-104140000D02*
X177800000Y-102870000D01*
X160655000Y-99060000D02*
X160655000Y-103505000D01*
X161290000Y-104140000D02*
X175260000Y-104140000D01*
X160655000Y-103505000D02*
X161290000Y-104140000D01*
X158115000Y-99060000D02*
X158115000Y-105410000D01*
X159385000Y-106680000D02*
X175260000Y-106680000D01*
X158115000Y-105410000D02*
X159385000Y-106680000D01*
X155575000Y-99060000D02*
X155575000Y-107950000D01*
X155575000Y-107950000D02*
X156845000Y-109220000D01*
X156845000Y-109220000D02*
X175260000Y-109220000D01*
D16*
X172212000Y-96437260D02*
X155505340Y-96437260D01*
X155505340Y-96437260D02*
X153035000Y-98907600D01*
X153035000Y-98907600D02*
X153035000Y-99060000D01*
X174802800Y-97028000D02*
X172802740Y-97028000D01*
X172802740Y-97028000D02*
X172212000Y-96437260D01*
X175260000Y-111760000D02*
X156210000Y-111760000D01*
X156210000Y-111760000D02*
X153035000Y-108585000D01*
X153035000Y-108585000D02*
X153035000Y-99060000D01*
X177800000Y-111760000D02*
X179705000Y-111760000D01*
X179705000Y-111760000D02*
X181305200Y-110159800D01*
X181305200Y-110159800D02*
X181305200Y-97028000D01*
X181305200Y-97028000D02*
X180755290Y-97028000D01*
D17*
G36*
X182195000Y-95192850D02*
X181590950Y-95192850D01*
X181432200Y-95351600D01*
X181432200Y-96901000D01*
X181452200Y-96901000D01*
X181452200Y-97155000D01*
X181432200Y-97155000D01*
X181432200Y-98704400D01*
X181590950Y-98863150D01*
X182195000Y-98863150D01*
X182195000Y-113615000D01*
X150545000Y-113615000D01*
X150545000Y-98875255D01*
X151536400Y-98875255D01*
X151536400Y-99244745D01*
X151650474Y-99818234D01*
X151975330Y-100304415D01*
X152146000Y-100418453D01*
X152146000Y-108585000D01*
X152213671Y-108925206D01*
X152406382Y-109213618D01*
X155581382Y-112388618D01*
X155869794Y-112581329D01*
X156210000Y-112649000D01*
X174173515Y-112649000D01*
X174467630Y-112943629D01*
X174980900Y-113156757D01*
X175536661Y-113157242D01*
X176050303Y-112945010D01*
X176255457Y-112740213D01*
X176999392Y-112740213D01*
X177068857Y-112982397D01*
X177592302Y-113169144D01*
X178147368Y-113141362D01*
X178531143Y-112982397D01*
X178600608Y-112740213D01*
X177800000Y-111939605D01*
X176999392Y-112740213D01*
X176255457Y-112740213D01*
X176443629Y-112552370D01*
X176523395Y-112360273D01*
X176577603Y-112491143D01*
X176819787Y-112560608D01*
X177620395Y-111760000D01*
X177979605Y-111760000D01*
X178780213Y-112560608D01*
X179022397Y-112491143D01*
X179209144Y-111967698D01*
X179181362Y-111412632D01*
X179022397Y-111028857D01*
X178780213Y-110959392D01*
X177979605Y-111760000D01*
X177620395Y-111760000D01*
X176819787Y-110959392D01*
X176577603Y-111028857D01*
X176527491Y-111169318D01*
X176445010Y-110969697D01*
X176052370Y-110576371D01*
X175844488Y-110490051D01*
X176050303Y-110405010D01*
X176443629Y-110012370D01*
X176529949Y-109804488D01*
X176614990Y-110010303D01*
X177007630Y-110403629D01*
X177199727Y-110483395D01*
X177068857Y-110537603D01*
X176999392Y-110779787D01*
X177800000Y-111580395D01*
X178600608Y-110779787D01*
X178531143Y-110537603D01*
X178390682Y-110487491D01*
X178590303Y-110405010D01*
X178983629Y-110012370D01*
X179196757Y-109499100D01*
X179197242Y-108943339D01*
X178985010Y-108429697D01*
X178592370Y-108036371D01*
X178384488Y-107950051D01*
X178590303Y-107865010D01*
X178983629Y-107472370D01*
X179196757Y-106959100D01*
X179197242Y-106403339D01*
X178985010Y-105889697D01*
X178592370Y-105496371D01*
X178384488Y-105410051D01*
X178590303Y-105325010D01*
X178983629Y-104932370D01*
X179196757Y-104419100D01*
X179197242Y-103863339D01*
X178985010Y-103349697D01*
X178600100Y-102964115D01*
X178600100Y-102870000D01*
X178539196Y-102563815D01*
X178365756Y-102304244D01*
X177730756Y-101669244D01*
X177471185Y-101495804D01*
X177165000Y-101434900D01*
X164796412Y-101434900D01*
X163995100Y-100633588D01*
X163995100Y-100477854D01*
X164254670Y-100304415D01*
X164465000Y-99989634D01*
X164675330Y-100304415D01*
X165161511Y-100629271D01*
X165735000Y-100743345D01*
X166308489Y-100629271D01*
X166794670Y-100304415D01*
X167005000Y-99989634D01*
X167215330Y-100304415D01*
X167701511Y-100629271D01*
X168275000Y-100743345D01*
X168848489Y-100629271D01*
X169334670Y-100304415D01*
X169349500Y-100282220D01*
X169413073Y-100435698D01*
X169591701Y-100614327D01*
X169825090Y-100711000D01*
X170529250Y-100711000D01*
X170688000Y-100552250D01*
X170688000Y-99187000D01*
X170942000Y-99187000D01*
X170942000Y-100552250D01*
X171100750Y-100711000D01*
X171804910Y-100711000D01*
X172038299Y-100614327D01*
X172216927Y-100435698D01*
X172313600Y-100202309D01*
X172313600Y-99345750D01*
X172154850Y-99187000D01*
X170942000Y-99187000D01*
X170688000Y-99187000D01*
X170668000Y-99187000D01*
X170668000Y-98933000D01*
X170688000Y-98933000D01*
X170688000Y-97567750D01*
X170529250Y-97409000D01*
X169825090Y-97409000D01*
X169591701Y-97505673D01*
X169413073Y-97684302D01*
X169349500Y-97837780D01*
X169334670Y-97815585D01*
X168848489Y-97490729D01*
X168275000Y-97376655D01*
X167701511Y-97490729D01*
X167215330Y-97815585D01*
X167005000Y-98130366D01*
X166794670Y-97815585D01*
X166308489Y-97490729D01*
X165735000Y-97376655D01*
X165161511Y-97490729D01*
X164675330Y-97815585D01*
X164465000Y-98130366D01*
X164254670Y-97815585D01*
X163768489Y-97490729D01*
X163195000Y-97376655D01*
X162621511Y-97490729D01*
X162135330Y-97815585D01*
X161925000Y-98130366D01*
X161714670Y-97815585D01*
X161228489Y-97490729D01*
X160655000Y-97376655D01*
X160081511Y-97490729D01*
X159595330Y-97815585D01*
X159385000Y-98130366D01*
X159174670Y-97815585D01*
X158688489Y-97490729D01*
X158115000Y-97376655D01*
X157541511Y-97490729D01*
X157055330Y-97815585D01*
X156845000Y-98130366D01*
X156634670Y-97815585D01*
X156148489Y-97490729D01*
X155782005Y-97417831D01*
X155873576Y-97326260D01*
X171843764Y-97326260D01*
X172012484Y-97494980D01*
X171804910Y-97409000D01*
X171100750Y-97409000D01*
X170942000Y-97567750D01*
X170942000Y-98933000D01*
X172154850Y-98933000D01*
X172313600Y-98774250D01*
X172313600Y-97917691D01*
X172217452Y-97685571D01*
X172405300Y-97811087D01*
X172405300Y-98228150D01*
X172449578Y-98463467D01*
X172588650Y-98679591D01*
X172800850Y-98824581D01*
X173052740Y-98875590D01*
X176552860Y-98875590D01*
X176788177Y-98831312D01*
X177004301Y-98692240D01*
X177149291Y-98480040D01*
X177200300Y-98228150D01*
X177200300Y-97313750D01*
X178920140Y-97313750D01*
X178920140Y-98354460D01*
X179016813Y-98587849D01*
X179195442Y-98766477D01*
X179428831Y-98863150D01*
X181019450Y-98863150D01*
X181178200Y-98704400D01*
X181178200Y-97155000D01*
X179078890Y-97155000D01*
X178920140Y-97313750D01*
X177200300Y-97313750D01*
X177200300Y-95827850D01*
X177176534Y-95701540D01*
X178920140Y-95701540D01*
X178920140Y-96742250D01*
X179078890Y-96901000D01*
X181178200Y-96901000D01*
X181178200Y-95351600D01*
X181019450Y-95192850D01*
X179428831Y-95192850D01*
X179195442Y-95289523D01*
X179016813Y-95468151D01*
X178920140Y-95701540D01*
X177176534Y-95701540D01*
X177156022Y-95592533D01*
X177016950Y-95376409D01*
X176804750Y-95231419D01*
X176552860Y-95180410D01*
X173052740Y-95180410D01*
X172817423Y-95224688D01*
X172601299Y-95363760D01*
X172456309Y-95575960D01*
X172452241Y-95596047D01*
X172212000Y-95548260D01*
X155505340Y-95548260D01*
X155165134Y-95615931D01*
X154876722Y-95808642D01*
X153263298Y-97422066D01*
X153035000Y-97376655D01*
X152461511Y-97490729D01*
X151975330Y-97815585D01*
X151650474Y-98301766D01*
X151536400Y-98875255D01*
X150545000Y-98875255D01*
X150545000Y-93141000D01*
X182195000Y-93141000D01*
X182195000Y-95192850D01*
X182195000Y-95192850D01*
G37*
X182195000Y-95192850D02*
X181590950Y-95192850D01*
X181432200Y-95351600D01*
X181432200Y-96901000D01*
X181452200Y-96901000D01*
X181452200Y-97155000D01*
X181432200Y-97155000D01*
X181432200Y-98704400D01*
X181590950Y-98863150D01*
X182195000Y-98863150D01*
X182195000Y-113615000D01*
X150545000Y-113615000D01*
X150545000Y-98875255D01*
X151536400Y-98875255D01*
X151536400Y-99244745D01*
X151650474Y-99818234D01*
X151975330Y-100304415D01*
X152146000Y-100418453D01*
X152146000Y-108585000D01*
X152213671Y-108925206D01*
X152406382Y-109213618D01*
X155581382Y-112388618D01*
X155869794Y-112581329D01*
X156210000Y-112649000D01*
X174173515Y-112649000D01*
X174467630Y-112943629D01*
X174980900Y-113156757D01*
X175536661Y-113157242D01*
X176050303Y-112945010D01*
X176255457Y-112740213D01*
X176999392Y-112740213D01*
X177068857Y-112982397D01*
X177592302Y-113169144D01*
X178147368Y-113141362D01*
X178531143Y-112982397D01*
X178600608Y-112740213D01*
X177800000Y-111939605D01*
X176999392Y-112740213D01*
X176255457Y-112740213D01*
X176443629Y-112552370D01*
X176523395Y-112360273D01*
X176577603Y-112491143D01*
X176819787Y-112560608D01*
X177620395Y-111760000D01*
X177979605Y-111760000D01*
X178780213Y-112560608D01*
X179022397Y-112491143D01*
X179209144Y-111967698D01*
X179181362Y-111412632D01*
X179022397Y-111028857D01*
X178780213Y-110959392D01*
X177979605Y-111760000D01*
X177620395Y-111760000D01*
X176819787Y-110959392D01*
X176577603Y-111028857D01*
X176527491Y-111169318D01*
X176445010Y-110969697D01*
X176052370Y-110576371D01*
X175844488Y-110490051D01*
X176050303Y-110405010D01*
X176443629Y-110012370D01*
X176529949Y-109804488D01*
X176614990Y-110010303D01*
X177007630Y-110403629D01*
X177199727Y-110483395D01*
X177068857Y-110537603D01*
X176999392Y-110779787D01*
X177800000Y-111580395D01*
X178600608Y-110779787D01*
X178531143Y-110537603D01*
X178390682Y-110487491D01*
X178590303Y-110405010D01*
X178983629Y-110012370D01*
X179196757Y-109499100D01*
X179197242Y-108943339D01*
X178985010Y-108429697D01*
X178592370Y-108036371D01*
X178384488Y-107950051D01*
X178590303Y-107865010D01*
X178983629Y-107472370D01*
X179196757Y-106959100D01*
X179197242Y-106403339D01*
X178985010Y-105889697D01*
X178592370Y-105496371D01*
X178384488Y-105410051D01*
X178590303Y-105325010D01*
X178983629Y-104932370D01*
X179196757Y-104419100D01*
X179197242Y-103863339D01*
X178985010Y-103349697D01*
X178600100Y-102964115D01*
X178600100Y-102870000D01*
X178539196Y-102563815D01*
X178365756Y-102304244D01*
X177730756Y-101669244D01*
X177471185Y-101495804D01*
X177165000Y-101434900D01*
X164796412Y-101434900D01*
X163995100Y-100633588D01*
X163995100Y-100477854D01*
X164254670Y-100304415D01*
X164465000Y-99989634D01*
X164675330Y-100304415D01*
X165161511Y-100629271D01*
X165735000Y-100743345D01*
X166308489Y-100629271D01*
X166794670Y-100304415D01*
X167005000Y-99989634D01*
X167215330Y-100304415D01*
X167701511Y-100629271D01*
X168275000Y-100743345D01*
X168848489Y-100629271D01*
X169334670Y-100304415D01*
X169349500Y-100282220D01*
X169413073Y-100435698D01*
X169591701Y-100614327D01*
X169825090Y-100711000D01*
X170529250Y-100711000D01*
X170688000Y-100552250D01*
X170688000Y-99187000D01*
X170942000Y-99187000D01*
X170942000Y-100552250D01*
X171100750Y-100711000D01*
X171804910Y-100711000D01*
X172038299Y-100614327D01*
X172216927Y-100435698D01*
X172313600Y-100202309D01*
X172313600Y-99345750D01*
X172154850Y-99187000D01*
X170942000Y-99187000D01*
X170688000Y-99187000D01*
X170668000Y-99187000D01*
X170668000Y-98933000D01*
X170688000Y-98933000D01*
X170688000Y-97567750D01*
X170529250Y-97409000D01*
X169825090Y-97409000D01*
X169591701Y-97505673D01*
X169413073Y-97684302D01*
X169349500Y-97837780D01*
X169334670Y-97815585D01*
X168848489Y-97490729D01*
X168275000Y-97376655D01*
X167701511Y-97490729D01*
X167215330Y-97815585D01*
X167005000Y-98130366D01*
X166794670Y-97815585D01*
X166308489Y-97490729D01*
X165735000Y-97376655D01*
X165161511Y-97490729D01*
X164675330Y-97815585D01*
X164465000Y-98130366D01*
X164254670Y-97815585D01*
X163768489Y-97490729D01*
X163195000Y-97376655D01*
X162621511Y-97490729D01*
X162135330Y-97815585D01*
X161925000Y-98130366D01*
X161714670Y-97815585D01*
X161228489Y-97490729D01*
X160655000Y-97376655D01*
X160081511Y-97490729D01*
X159595330Y-97815585D01*
X159385000Y-98130366D01*
X159174670Y-97815585D01*
X158688489Y-97490729D01*
X158115000Y-97376655D01*
X157541511Y-97490729D01*
X157055330Y-97815585D01*
X156845000Y-98130366D01*
X156634670Y-97815585D01*
X156148489Y-97490729D01*
X155782005Y-97417831D01*
X155873576Y-97326260D01*
X171843764Y-97326260D01*
X172012484Y-97494980D01*
X171804910Y-97409000D01*
X171100750Y-97409000D01*
X170942000Y-97567750D01*
X170942000Y-98933000D01*
X172154850Y-98933000D01*
X172313600Y-98774250D01*
X172313600Y-97917691D01*
X172217452Y-97685571D01*
X172405300Y-97811087D01*
X172405300Y-98228150D01*
X172449578Y-98463467D01*
X172588650Y-98679591D01*
X172800850Y-98824581D01*
X173052740Y-98875590D01*
X176552860Y-98875590D01*
X176788177Y-98831312D01*
X177004301Y-98692240D01*
X177149291Y-98480040D01*
X177200300Y-98228150D01*
X177200300Y-97313750D01*
X178920140Y-97313750D01*
X178920140Y-98354460D01*
X179016813Y-98587849D01*
X179195442Y-98766477D01*
X179428831Y-98863150D01*
X181019450Y-98863150D01*
X181178200Y-98704400D01*
X181178200Y-97155000D01*
X179078890Y-97155000D01*
X178920140Y-97313750D01*
X177200300Y-97313750D01*
X177200300Y-95827850D01*
X177176534Y-95701540D01*
X178920140Y-95701540D01*
X178920140Y-96742250D01*
X179078890Y-96901000D01*
X181178200Y-96901000D01*
X181178200Y-95351600D01*
X181019450Y-95192850D01*
X179428831Y-95192850D01*
X179195442Y-95289523D01*
X179016813Y-95468151D01*
X178920140Y-95701540D01*
X177176534Y-95701540D01*
X177156022Y-95592533D01*
X177016950Y-95376409D01*
X176804750Y-95231419D01*
X176552860Y-95180410D01*
X173052740Y-95180410D01*
X172817423Y-95224688D01*
X172601299Y-95363760D01*
X172456309Y-95575960D01*
X172452241Y-95596047D01*
X172212000Y-95548260D01*
X155505340Y-95548260D01*
X155165134Y-95615931D01*
X154876722Y-95808642D01*
X153263298Y-97422066D01*
X153035000Y-97376655D01*
X152461511Y-97490729D01*
X151975330Y-97815585D01*
X151650474Y-98301766D01*
X151536400Y-98875255D01*
X150545000Y-98875255D01*
X150545000Y-93141000D01*
X182195000Y-93141000D01*
X182195000Y-95192850D01*
M02*
