G04 #@! TF.FileFunction,Legend,Top*
%FSLAX46Y46*%
G04 Gerber Fmt 4.6, Leading zero omitted, Abs format (unit mm)*
G04 Created by KiCad (PCBNEW (2015-11-17 BZR 6321)-product) date Tue 01 Dec 2015 12:21:10 PM PST*
%MOMM*%
G01*
G04 APERTURE LIST*
%ADD10C,0.152400*%
%ADD11C,0.203200*%
%ADD12C,0.300000*%
%ADD13C,0.150000*%
%ADD14C,0.125000*%
G04 APERTURE END LIST*
D10*
D11*
X170180000Y-96151095D02*
X170131619Y-96247857D01*
X170131619Y-96393000D01*
X170180000Y-96538142D01*
X170276762Y-96634904D01*
X170373524Y-96683285D01*
X170567048Y-96731666D01*
X170712190Y-96731666D01*
X170905714Y-96683285D01*
X171002476Y-96634904D01*
X171099238Y-96538142D01*
X171147619Y-96393000D01*
X171147619Y-96296238D01*
X171099238Y-96151095D01*
X171050857Y-96102714D01*
X170712190Y-96102714D01*
X170712190Y-96296238D01*
X171147619Y-95667285D02*
X170131619Y-95667285D01*
X171147619Y-95086714D01*
X170131619Y-95086714D01*
X171147619Y-94602904D02*
X170131619Y-94602904D01*
X170131619Y-94360999D01*
X170180000Y-94215857D01*
X170276762Y-94119095D01*
X170373524Y-94070714D01*
X170567048Y-94022333D01*
X170712190Y-94022333D01*
X170905714Y-94070714D01*
X171002476Y-94119095D01*
X171099238Y-94215857D01*
X171147619Y-94360999D01*
X171147619Y-94602904D01*
X168256857Y-95649143D02*
X168305238Y-95697524D01*
X168353619Y-95842667D01*
X168353619Y-95939429D01*
X168305238Y-96084571D01*
X168208476Y-96181333D01*
X168111714Y-96229714D01*
X167918190Y-96278095D01*
X167773048Y-96278095D01*
X167579524Y-96229714D01*
X167482762Y-96181333D01*
X167386000Y-96084571D01*
X167337619Y-95939429D01*
X167337619Y-95842667D01*
X167386000Y-95697524D01*
X167434381Y-95649143D01*
X167821429Y-95213714D02*
X167821429Y-94875048D01*
X168353619Y-94729905D02*
X168353619Y-95213714D01*
X167337619Y-95213714D01*
X167337619Y-94729905D01*
X165765238Y-96810285D02*
X165813619Y-96665142D01*
X165813619Y-96423238D01*
X165765238Y-96326476D01*
X165716857Y-96278095D01*
X165620095Y-96229714D01*
X165523333Y-96229714D01*
X165426571Y-96278095D01*
X165378190Y-96326476D01*
X165329810Y-96423238D01*
X165281429Y-96616761D01*
X165233048Y-96713523D01*
X165184667Y-96761904D01*
X165087905Y-96810285D01*
X164991143Y-96810285D01*
X164894381Y-96761904D01*
X164846000Y-96713523D01*
X164797619Y-96616761D01*
X164797619Y-96374857D01*
X164846000Y-96229714D01*
X165716857Y-95213714D02*
X165765238Y-95262095D01*
X165813619Y-95407238D01*
X165813619Y-95504000D01*
X165765238Y-95649142D01*
X165668476Y-95745904D01*
X165571714Y-95794285D01*
X165378190Y-95842666D01*
X165233048Y-95842666D01*
X165039524Y-95794285D01*
X164942762Y-95745904D01*
X164846000Y-95649142D01*
X164797619Y-95504000D01*
X164797619Y-95407238D01*
X164846000Y-95262095D01*
X164894381Y-95213714D01*
X165813619Y-94778285D02*
X164797619Y-94778285D01*
X165813619Y-94197714D02*
X165233048Y-94633142D01*
X164797619Y-94197714D02*
X165378190Y-94778285D01*
X163273619Y-96846571D02*
X162257619Y-96846571D01*
X162983333Y-96507905D01*
X162257619Y-96169238D01*
X163273619Y-96169238D01*
X163273619Y-95685428D02*
X162257619Y-95685428D01*
X163225238Y-95249999D02*
X163273619Y-95104856D01*
X163273619Y-94862952D01*
X163225238Y-94766190D01*
X163176857Y-94717809D01*
X163080095Y-94669428D01*
X162983333Y-94669428D01*
X162886571Y-94717809D01*
X162838190Y-94766190D01*
X162789810Y-94862952D01*
X162741429Y-95056475D01*
X162693048Y-95153237D01*
X162644667Y-95201618D01*
X162547905Y-95249999D01*
X162451143Y-95249999D01*
X162354381Y-95201618D01*
X162306000Y-95153237D01*
X162257619Y-95056475D01*
X162257619Y-94814571D01*
X162306000Y-94669428D01*
X162257619Y-94040475D02*
X162257619Y-93846952D01*
X162306000Y-93750190D01*
X162402762Y-93653428D01*
X162596286Y-93605047D01*
X162934952Y-93605047D01*
X163128476Y-93653428D01*
X163225238Y-93750190D01*
X163273619Y-93846952D01*
X163273619Y-94040475D01*
X163225238Y-94137237D01*
X163128476Y-94233999D01*
X162934952Y-94282380D01*
X162596286Y-94282380D01*
X162402762Y-94233999D01*
X162306000Y-94137237D01*
X162257619Y-94040475D01*
X160733619Y-96544190D02*
X159717619Y-96544190D01*
X160733619Y-95479809D02*
X160249810Y-95818475D01*
X160733619Y-96060380D02*
X159717619Y-96060380D01*
X159717619Y-95673333D01*
X159766000Y-95576571D01*
X159814381Y-95528190D01*
X159911143Y-95479809D01*
X160056286Y-95479809D01*
X160153048Y-95528190D01*
X160201429Y-95576571D01*
X160249810Y-95673333D01*
X160249810Y-96060380D01*
X160830381Y-94367047D02*
X160782000Y-94463809D01*
X160685238Y-94560571D01*
X160540095Y-94705714D01*
X160491714Y-94802475D01*
X160491714Y-94899237D01*
X160733619Y-94850856D02*
X160685238Y-94947618D01*
X160588476Y-95044380D01*
X160394952Y-95092761D01*
X160056286Y-95092761D01*
X159862762Y-95044380D01*
X159766000Y-94947618D01*
X159717619Y-94850856D01*
X159717619Y-94657333D01*
X159766000Y-94560571D01*
X159862762Y-94463809D01*
X160056286Y-94415428D01*
X160394952Y-94415428D01*
X160588476Y-94463809D01*
X160685238Y-94560571D01*
X160733619Y-94657333D01*
X160733619Y-94850856D01*
X158193619Y-96846571D02*
X157177619Y-96846571D01*
X157903333Y-96507905D01*
X157177619Y-96169238D01*
X158193619Y-96169238D01*
X157177619Y-95491904D02*
X157177619Y-95298381D01*
X157226000Y-95201619D01*
X157322762Y-95104857D01*
X157516286Y-95056476D01*
X157854952Y-95056476D01*
X158048476Y-95104857D01*
X158145238Y-95201619D01*
X158193619Y-95298381D01*
X158193619Y-95491904D01*
X158145238Y-95588666D01*
X158048476Y-95685428D01*
X157854952Y-95733809D01*
X157516286Y-95733809D01*
X157322762Y-95685428D01*
X157226000Y-95588666D01*
X157177619Y-95491904D01*
X158145238Y-94669428D02*
X158193619Y-94524285D01*
X158193619Y-94282381D01*
X158145238Y-94185619D01*
X158096857Y-94137238D01*
X158000095Y-94088857D01*
X157903333Y-94088857D01*
X157806571Y-94137238D01*
X157758190Y-94185619D01*
X157709810Y-94282381D01*
X157661429Y-94475904D01*
X157613048Y-94572666D01*
X157564667Y-94621047D01*
X157467905Y-94669428D01*
X157371143Y-94669428D01*
X157274381Y-94621047D01*
X157226000Y-94572666D01*
X157177619Y-94475904D01*
X157177619Y-94234000D01*
X157226000Y-94088857D01*
X158193619Y-93653428D02*
X157177619Y-93653428D01*
X155556857Y-96205524D02*
X155605238Y-96253905D01*
X155653619Y-96399048D01*
X155653619Y-96495810D01*
X155605238Y-96640952D01*
X155508476Y-96737714D01*
X155411714Y-96786095D01*
X155218190Y-96834476D01*
X155073048Y-96834476D01*
X154879524Y-96786095D01*
X154782762Y-96737714D01*
X154686000Y-96640952D01*
X154637619Y-96495810D01*
X154637619Y-96399048D01*
X154686000Y-96253905D01*
X154734381Y-96205524D01*
X155605238Y-95818476D02*
X155653619Y-95673333D01*
X155653619Y-95431429D01*
X155605238Y-95334667D01*
X155556857Y-95286286D01*
X155460095Y-95237905D01*
X155363333Y-95237905D01*
X155266571Y-95286286D01*
X155218190Y-95334667D01*
X155169810Y-95431429D01*
X155121429Y-95624952D01*
X155073048Y-95721714D01*
X155024667Y-95770095D01*
X154927905Y-95818476D01*
X154831143Y-95818476D01*
X154734381Y-95770095D01*
X154686000Y-95721714D01*
X154637619Y-95624952D01*
X154637619Y-95383048D01*
X154686000Y-95237905D01*
X155653619Y-94802476D02*
X154637619Y-94802476D01*
X155653619Y-94221905D01*
X154637619Y-94221905D01*
X152097619Y-96713523D02*
X153113619Y-96374856D01*
X152097619Y-96036190D01*
X153065238Y-95262095D02*
X153113619Y-95358857D01*
X153113619Y-95552380D01*
X153065238Y-95649142D01*
X153016857Y-95697523D01*
X152920095Y-95745904D01*
X152629810Y-95745904D01*
X152533048Y-95697523D01*
X152484667Y-95649142D01*
X152436286Y-95552380D01*
X152436286Y-95358857D01*
X152484667Y-95262095D01*
X153065238Y-94391238D02*
X153113619Y-94488000D01*
X153113619Y-94681523D01*
X153065238Y-94778285D01*
X153016857Y-94826666D01*
X152920095Y-94875047D01*
X152629810Y-94875047D01*
X152533048Y-94826666D01*
X152484667Y-94778285D01*
X152436286Y-94681523D01*
X152436286Y-94488000D01*
X152484667Y-94391238D01*
D12*
X150511144Y-111057571D02*
X150868287Y-112057571D01*
X151225429Y-111057571D01*
X152582572Y-112057571D02*
X151725429Y-112057571D01*
X152154001Y-112057571D02*
X152154001Y-110557571D01*
X152011144Y-110771857D01*
X151868286Y-110914714D01*
X151725429Y-110986143D01*
X153225429Y-111914714D02*
X153296857Y-111986143D01*
X153225429Y-112057571D01*
X153154000Y-111986143D01*
X153225429Y-111914714D01*
X153225429Y-112057571D01*
X154725429Y-112057571D02*
X153868286Y-112057571D01*
X154296858Y-112057571D02*
X154296858Y-110557571D01*
X154154001Y-110771857D01*
X154011143Y-110914714D01*
X153868286Y-110986143D01*
D13*
X181864000Y-98044000D02*
X181864000Y-96012000D01*
X181737000Y-95631000D02*
X181737000Y-98425000D01*
X181610000Y-98679000D02*
X181610000Y-95377000D01*
X181483000Y-95123000D02*
X181483000Y-98933000D01*
X181356000Y-94996000D02*
X181356000Y-99060000D01*
X181229000Y-99314000D02*
X181229000Y-94742000D01*
X182245000Y-101219000D02*
X182245000Y-92837000D01*
X182245000Y-92837000D02*
X174625000Y-92837000D01*
X174625000Y-92837000D02*
X173863000Y-93599000D01*
X173863000Y-93599000D02*
X173863000Y-100457000D01*
X173863000Y-100457000D02*
X174625000Y-101219000D01*
X174625000Y-101219000D02*
X182245000Y-101219000D01*
X174371000Y-97028000D02*
X175133000Y-97028000D01*
X174752000Y-97409000D02*
X174752000Y-96647000D01*
X181991000Y-97028000D02*
G75*
G03X181991000Y-97028000I-3937000J0D01*
G01*
X182880000Y-101600000D02*
X182880000Y-114300000D01*
X182880000Y-114300000D02*
X149860000Y-114300000D01*
X149860000Y-114300000D02*
X149860000Y-101600000D01*
X149860000Y-101600000D02*
X182880000Y-101600000D01*
X169545000Y-100330000D02*
X151765000Y-100330000D01*
X151765000Y-100330000D02*
X151765000Y-97790000D01*
X151765000Y-97790000D02*
X169545000Y-97790000D01*
X172365000Y-100610000D02*
X170815000Y-100610000D01*
X169545000Y-100330000D02*
X169545000Y-97790000D01*
X170815000Y-97510000D02*
X172365000Y-97510000D01*
X172365000Y-97510000D02*
X172365000Y-100610000D01*
X177887334Y-102465143D02*
X177839715Y-102512762D01*
X177696858Y-102560381D01*
X177601620Y-102560381D01*
X177458762Y-102512762D01*
X177363524Y-102417524D01*
X177315905Y-102322286D01*
X177268286Y-102131810D01*
X177268286Y-101988952D01*
X177315905Y-101798476D01*
X177363524Y-101703238D01*
X177458762Y-101608000D01*
X177601620Y-101560381D01*
X177696858Y-101560381D01*
X177839715Y-101608000D01*
X177887334Y-101655619D01*
X178839715Y-102560381D02*
X178268286Y-102560381D01*
X178554000Y-102560381D02*
X178554000Y-101560381D01*
X178458762Y-101703238D01*
X178363524Y-101798476D01*
X178268286Y-101846095D01*
X150304762Y-113069714D02*
X150304762Y-113736381D01*
X150304762Y-113164952D02*
X150352381Y-113117333D01*
X150447619Y-113069714D01*
X150590477Y-113069714D01*
X150685715Y-113117333D01*
X150733334Y-113212571D01*
X150733334Y-113736381D01*
X151780953Y-113736381D02*
X151447619Y-113260190D01*
X151209524Y-113736381D02*
X151209524Y-112736381D01*
X151590477Y-112736381D01*
X151685715Y-112784000D01*
X151733334Y-112831619D01*
X151780953Y-112926857D01*
X151780953Y-113069714D01*
X151733334Y-113164952D01*
X151685715Y-113212571D01*
X151590477Y-113260190D01*
X151209524Y-113260190D01*
X152542858Y-113212571D02*
X152209524Y-113212571D01*
X152209524Y-113736381D02*
X152209524Y-112736381D01*
X152685715Y-112736381D01*
X153019048Y-112831619D02*
X153066667Y-112784000D01*
X153161905Y-112736381D01*
X153400001Y-112736381D01*
X153495239Y-112784000D01*
X153542858Y-112831619D01*
X153590477Y-112926857D01*
X153590477Y-113022095D01*
X153542858Y-113164952D01*
X152971429Y-113736381D01*
X153590477Y-113736381D01*
X154447620Y-113069714D02*
X154447620Y-113736381D01*
X154209524Y-112688762D02*
X153971429Y-113403048D01*
X154590477Y-113403048D01*
D14*
X172124763Y-111486190D02*
X172291430Y-111986190D01*
X172458096Y-111486190D01*
X172839048Y-111962381D02*
X172791429Y-111986190D01*
X172696191Y-111986190D01*
X172648572Y-111962381D01*
X172624763Y-111938571D01*
X172600953Y-111890952D01*
X172600953Y-111748095D01*
X172624763Y-111700476D01*
X172648572Y-111676667D01*
X172696191Y-111652857D01*
X172791429Y-111652857D01*
X172839048Y-111676667D01*
X173267619Y-111962381D02*
X173220000Y-111986190D01*
X173124762Y-111986190D01*
X173077143Y-111962381D01*
X173053334Y-111938571D01*
X173029524Y-111890952D01*
X173029524Y-111748095D01*
X173053334Y-111700476D01*
X173077143Y-111676667D01*
X173124762Y-111652857D01*
X173220000Y-111652857D01*
X173267619Y-111676667D01*
X172374762Y-109398571D02*
X172350952Y-109422381D01*
X172279524Y-109446190D01*
X172231905Y-109446190D01*
X172160476Y-109422381D01*
X172112857Y-109374762D01*
X172089048Y-109327143D01*
X172065238Y-109231905D01*
X172065238Y-109160476D01*
X172089048Y-109065238D01*
X172112857Y-109017619D01*
X172160476Y-108970000D01*
X172231905Y-108946190D01*
X172279524Y-108946190D01*
X172350952Y-108970000D01*
X172374762Y-108993810D01*
X172565238Y-109422381D02*
X172636667Y-109446190D01*
X172755714Y-109446190D01*
X172803333Y-109422381D01*
X172827143Y-109398571D01*
X172850952Y-109350952D01*
X172850952Y-109303333D01*
X172827143Y-109255714D01*
X172803333Y-109231905D01*
X172755714Y-109208095D01*
X172660476Y-109184286D01*
X172612857Y-109160476D01*
X172589048Y-109136667D01*
X172565238Y-109089048D01*
X172565238Y-109041429D01*
X172589048Y-108993810D01*
X172612857Y-108970000D01*
X172660476Y-108946190D01*
X172779524Y-108946190D01*
X172850952Y-108970000D01*
X173065238Y-109446190D02*
X173065238Y-108946190D01*
X173350952Y-109446190D01*
X173350952Y-108946190D01*
X171934286Y-106906190D02*
X171934286Y-106406190D01*
X172100952Y-106763333D01*
X172267619Y-106406190D01*
X172267619Y-106906190D01*
X172600953Y-106406190D02*
X172696191Y-106406190D01*
X172743810Y-106430000D01*
X172791429Y-106477619D01*
X172815238Y-106572857D01*
X172815238Y-106739524D01*
X172791429Y-106834762D01*
X172743810Y-106882381D01*
X172696191Y-106906190D01*
X172600953Y-106906190D01*
X172553334Y-106882381D01*
X172505715Y-106834762D01*
X172481905Y-106739524D01*
X172481905Y-106572857D01*
X172505715Y-106477619D01*
X172553334Y-106430000D01*
X172600953Y-106406190D01*
X173005715Y-106882381D02*
X173077144Y-106906190D01*
X173196191Y-106906190D01*
X173243810Y-106882381D01*
X173267620Y-106858571D01*
X173291429Y-106810952D01*
X173291429Y-106763333D01*
X173267620Y-106715714D01*
X173243810Y-106691905D01*
X173196191Y-106668095D01*
X173100953Y-106644286D01*
X173053334Y-106620476D01*
X173029525Y-106596667D01*
X173005715Y-106549048D01*
X173005715Y-106501429D01*
X173029525Y-106453810D01*
X173053334Y-106430000D01*
X173100953Y-106406190D01*
X173220001Y-106406190D01*
X173291429Y-106430000D01*
X173505715Y-106906190D02*
X173505715Y-106406190D01*
X172208096Y-104366190D02*
X172208096Y-103866190D01*
X172731905Y-104366190D02*
X172565238Y-104128095D01*
X172446191Y-104366190D02*
X172446191Y-103866190D01*
X172636667Y-103866190D01*
X172684286Y-103890000D01*
X172708095Y-103913810D01*
X172731905Y-103961429D01*
X172731905Y-104032857D01*
X172708095Y-104080476D01*
X172684286Y-104104286D01*
X172636667Y-104128095D01*
X172446191Y-104128095D01*
X173279524Y-104413810D02*
X173231905Y-104390000D01*
X173184286Y-104342381D01*
X173112857Y-104270952D01*
X173065238Y-104247143D01*
X173017619Y-104247143D01*
X173041429Y-104366190D02*
X172993810Y-104342381D01*
X172946191Y-104294762D01*
X172922381Y-104199524D01*
X172922381Y-104032857D01*
X172946191Y-103937619D01*
X172993810Y-103890000D01*
X173041429Y-103866190D01*
X173136667Y-103866190D01*
X173184286Y-103890000D01*
X173231905Y-103937619D01*
X173255714Y-104032857D01*
X173255714Y-104199524D01*
X173231905Y-104294762D01*
X173184286Y-104342381D01*
X173136667Y-104366190D01*
X173041429Y-104366190D01*
X179816191Y-104366190D02*
X179816191Y-103866190D01*
X179982857Y-104223333D01*
X180149524Y-103866190D01*
X180149524Y-104366190D01*
X180387620Y-104366190D02*
X180387620Y-103866190D01*
X180601905Y-104342381D02*
X180673334Y-104366190D01*
X180792381Y-104366190D01*
X180840000Y-104342381D01*
X180863810Y-104318571D01*
X180887619Y-104270952D01*
X180887619Y-104223333D01*
X180863810Y-104175714D01*
X180840000Y-104151905D01*
X180792381Y-104128095D01*
X180697143Y-104104286D01*
X180649524Y-104080476D01*
X180625715Y-104056667D01*
X180601905Y-104009048D01*
X180601905Y-103961429D01*
X180625715Y-103913810D01*
X180649524Y-103890000D01*
X180697143Y-103866190D01*
X180816191Y-103866190D01*
X180887619Y-103890000D01*
X179697143Y-106882381D02*
X179768572Y-106906190D01*
X179887619Y-106906190D01*
X179935238Y-106882381D01*
X179959048Y-106858571D01*
X179982857Y-106810952D01*
X179982857Y-106763333D01*
X179959048Y-106715714D01*
X179935238Y-106691905D01*
X179887619Y-106668095D01*
X179792381Y-106644286D01*
X179744762Y-106620476D01*
X179720953Y-106596667D01*
X179697143Y-106549048D01*
X179697143Y-106501429D01*
X179720953Y-106453810D01*
X179744762Y-106430000D01*
X179792381Y-106406190D01*
X179911429Y-106406190D01*
X179982857Y-106430000D01*
X180482857Y-106858571D02*
X180459047Y-106882381D01*
X180387619Y-106906190D01*
X180340000Y-106906190D01*
X180268571Y-106882381D01*
X180220952Y-106834762D01*
X180197143Y-106787143D01*
X180173333Y-106691905D01*
X180173333Y-106620476D01*
X180197143Y-106525238D01*
X180220952Y-106477619D01*
X180268571Y-106430000D01*
X180340000Y-106406190D01*
X180387619Y-106406190D01*
X180459047Y-106430000D01*
X180482857Y-106453810D01*
X180697143Y-106906190D02*
X180697143Y-106406190D01*
X180982857Y-106906190D02*
X180768571Y-106620476D01*
X180982857Y-106406190D02*
X180697143Y-106691905D01*
X180268572Y-109398571D02*
X180244762Y-109422381D01*
X180173334Y-109446190D01*
X180125715Y-109446190D01*
X180054286Y-109422381D01*
X180006667Y-109374762D01*
X179982858Y-109327143D01*
X179959048Y-109231905D01*
X179959048Y-109160476D01*
X179982858Y-109065238D01*
X180006667Y-109017619D01*
X180054286Y-108970000D01*
X180125715Y-108946190D01*
X180173334Y-108946190D01*
X180244762Y-108970000D01*
X180268572Y-108993810D01*
X180482858Y-109184286D02*
X180649524Y-109184286D01*
X180720953Y-109446190D02*
X180482858Y-109446190D01*
X180482858Y-108946190D01*
X180720953Y-108946190D01*
X179959047Y-111510000D02*
X179911428Y-111486190D01*
X179840000Y-111486190D01*
X179768571Y-111510000D01*
X179720952Y-111557619D01*
X179697143Y-111605238D01*
X179673333Y-111700476D01*
X179673333Y-111771905D01*
X179697143Y-111867143D01*
X179720952Y-111914762D01*
X179768571Y-111962381D01*
X179840000Y-111986190D01*
X179887619Y-111986190D01*
X179959047Y-111962381D01*
X179982857Y-111938571D01*
X179982857Y-111771905D01*
X179887619Y-111771905D01*
X180197143Y-111986190D02*
X180197143Y-111486190D01*
X180482857Y-111986190D01*
X180482857Y-111486190D01*
X180720953Y-111986190D02*
X180720953Y-111486190D01*
X180840000Y-111486190D01*
X180911429Y-111510000D01*
X180959048Y-111557619D01*
X180982857Y-111605238D01*
X181006667Y-111700476D01*
X181006667Y-111771905D01*
X180982857Y-111867143D01*
X180959048Y-111914762D01*
X180911429Y-111962381D01*
X180840000Y-111986190D01*
X180720953Y-111986190D01*
D13*
X151328381Y-99544095D02*
X150328381Y-99544095D01*
X150328381Y-99163142D01*
X150376000Y-99067904D01*
X150423619Y-99020285D01*
X150518857Y-98972666D01*
X150661714Y-98972666D01*
X150756952Y-99020285D01*
X150804571Y-99067904D01*
X150852190Y-99163142D01*
X150852190Y-99544095D01*
X151328381Y-98020285D02*
X151328381Y-98591714D01*
X151328381Y-98306000D02*
X150328381Y-98306000D01*
X150471238Y-98401238D01*
X150566476Y-98496476D01*
X150614095Y-98591714D01*
M02*
